<svg width="13" height="12" viewBox="0 0 13 12" fill="none" xmlns="http://www.w3.org/2000/svg">
<path d="M2.46344 11.6822L6.59961 7.54598L10.7358 11.6822C11.1562 12.1026 11.8546 12.1093 12.2818 11.6822C12.7089 11.255 12.7022 10.5566 12.2818 10.1362L8.14559 6L12.2818 1.86383C12.7022 1.44343 12.7089 0.745025 12.2818 0.317846C11.8546 -0.109332 11.1562 -0.102552 10.7358 0.317846L6.59961 4.45402L2.46344 0.317846C2.04304 -0.102552 1.34463 -0.109332 0.917456 0.317846C0.490277 0.745025 0.497058 1.44343 0.917456 1.86383L5.05363 6L0.917456 10.1362C0.497058 10.5566 0.490277 11.255 0.917456 11.6822C1.34463 12.1093 2.04304 12.1026 2.46344 11.6822Z" fill="currentColor"/>
</svg>
